<svg width="120" height="110" viewBox="0 0 120 110" fill="none" xmlns="http://www.w3.org/2000/svg">
<path d="M75.989 62.5879C77.6283 61.9805 81.1304 60.3934 82.7859 61.0586C83.1489 61.2048 83.5428 61.7418 84.2097 61.9737C86.2309 62.6714 87.0454 61.7304 88.4959 64.0137C89.6114 65.7709 90.2694 70.136 89.8142 72.1133C89.4817 73.5597 87.5759 73.1168 87.3093 72.3565C86.7575 70.7779 87.7648 66.8139 86.7908 64.876L86.781 64.8809C85.9155 64.1461 75.6564 69.2902 73.989 70.0088C72.7274 70.5535 68.4994 72.5394 67.5271 72.6905C67.0979 72.7577 65.7627 72.9082 66.284 72.1641C72.6374 69.8345 78.5215 65.9313 85.1414 64.4082L85.1297 63.7286C84.9993 63.5358 81.852 62.8634 81.7058 62.0918C79.3875 62.4836 77.2836 63.5781 75.1092 64.4219L74.6541 63.9493C73.9276 65.1058 71.9532 65.2657 70.6443 65.7989C66.6162 67.44 62.7579 69.4866 58.5105 70.5459C60.2344 72.2311 64.6515 71.3228 65.9158 73.6915C66.246 74.308 66.6025 76.6911 66.7205 77.5303C66.9941 79.4821 66.9162 81.448 67.2322 83.3975L68.1726 82.9366C68.3017 83.9794 65.513 83.9355 66.2888 84.7862C66.4729 84.9873 66.8808 84.4943 66.9939 84.4688C68.4561 84.1234 69.5247 82.7596 71.0222 82.1407C71.5175 81.9347 72.3895 82.1849 72.4109 81.4297C72.418 81.1887 71.9042 81.1583 71.7107 81.3135C71.5009 80.15 72.4723 80.4885 72.8875 80.2383C75.0784 78.9124 77.5145 77.8641 79.9011 76.7422C82.2289 75.6481 84.1044 74.8417 86.4109 73.875C87.2504 73.5226 88.2502 72.35 87.4392 74.3057C86.0808 74.7253 84.9132 75.7179 83.7176 76.3252C83.161 76.608 82.5874 76.1373 82.3162 77.0293C85.5236 77.1105 88.2294 74.9668 91.3543 74.6446C92.5794 75.0618 90.2774 76.1065 89.8543 76.2901C89.0642 76.6308 87.0123 76.6009 87.3826 77.8457L86.5564 78.0684L86.7927 77.377C86.1843 77.2773 86.0734 77.8809 86.0828 78.3028H85.7342L85.8513 77.8409C85.4271 77.6976 85.2808 78.2075 85.0261 78.2237C84.7502 78.2444 84.2009 77.6606 83.7293 77.8389L84.4343 78.4161C83.4981 78.6085 84.0119 79.457 83.5779 79.712C82.5801 80.2961 80.2664 80.8921 79.0213 81.4786C76.6843 82.5772 74.4105 83.7128 72.0593 84.7999C69.1303 86.1535 65.7794 87.7858 62.697 89.0166C60.6193 89.8465 58.5623 90.1589 56.6072 90.9053C55.4304 91.3527 54.739 91.6543 53.489 91.9649C53.3079 92.0121 53.3377 92.718 52.1502 92.1924V92.8897C51.4852 92.5165 50.8741 93.1586 50.1902 93.4043C49.8742 93.5179 49.6051 93.34 49.4754 93.3702C49.324 93.4059 48.4612 94.8435 48.0203 93.5713L47.5955 93.6182C46.6576 93.935 46.9901 94.6684 46.9383 94.7139C46.8321 94.795 46.0417 94.8925 45.7185 95.0176C44.9143 95.3306 44.7445 95.7759 43.6668 95.4375L43.8933 95.8829L36.2068 99.3409C35.766 99.1786 35.7516 98.8424 34.95 98.9073C34.7566 99.6351 35.9732 99.2115 35.1619 99.9278L25.8679 104.457C23.7831 105.507 21.9386 107.236 19.9363 108.354C19.6179 108.532 17.7263 109.503 17.573 109.526C16.6156 109.677 16.8607 108.977 16.7097 108.678C16.6765 108.618 16.1348 108.714 16.3299 108.284C19.4359 105.934 22.7312 103.713 26.2263 101.912C26.3702 101.094 25.8511 101.72 25.3582 101.509C24.7757 101.261 24.174 100.774 23.5183 100.523C22.1387 99.9997 20.2709 99.9439 19.4832 98.6553L14.4431 101.106C14.781 101.812 20.153 102.07 20.3396 103.894C20.4599 105.076 18.9314 105.843 18.6814 104.464L18.3416 104.923C16.4596 103.919 14.0043 104.202 12.6648 102.366L7.37576 105.51C7.2911 105.908 7.6864 105.975 7.96462 106.084C9.00233 106.485 10.72 106.402 11.9558 106.794C12.7705 107.054 16.4597 108.579 14.7761 109.771C13.9864 110.329 13.6724 109.708 13.0926 109.61C11.8333 109.399 6.89307 108.634 6.26248 107.874C6.0172 107.575 5.98137 107.148 5.95779 106.779L2.29568 109.548H1.85232C0.720279 108.801 1.80001 107.229 2.42263 106.432C5.00314 103.133 17.5971 97.1478 21.9011 95.2354C23.3608 94.5864 25.1696 93.7828 26.7 93.5811C26.7283 93.0456 26.7824 93.1682 26.3484 93.1172C25.0301 92.9643 23.3131 93.242 22.3533 92.1758C20.7098 90.3513 21.6203 85.4397 22.1863 83.2422C22.4434 82.2478 23.1818 81.334 22.9295 80.1495L24.073 80.1827C24.4149 80.9081 24.5117 81.7402 24.4763 82.5352C24.3867 84.5566 23.4266 88.2517 24.2615 90.1084C24.3209 90.2412 25.3044 91.6872 25.3845 91.7452C26.2849 92.3891 34.0893 91.6967 35.7801 92.4268L36.3582 92.0743C35.2498 91.3604 35.8601 89.7238 35.8201 88.625C35.7611 86.9932 35.3623 85.2011 35.2703 83.4649C35.2561 83.1961 35.4054 82.962 35.4197 82.7002C32.9766 83.0016 30.8183 81.5016 28.6345 80.9151C27.1087 80.5048 24.8815 80.7685 23.9617 79.4727L22.2283 79.9161C22.0962 79.3412 21.7873 79.206 22.365 78.7911C23.8814 77.6993 26.7825 77.4373 28.5867 77.0293C29.1361 76.2482 28.9624 75.2609 29.4529 74.4288C29.5203 74.314 30.4471 73.3933 30.5252 73.3604C31.0039 73.1634 35.9149 73.0677 36.4314 73.2022C36.8772 73.3209 37.5823 74.9858 37.3064 75.5235C37.5739 75.7847 43.2408 73.3647 44.2049 73.126C44.5771 73.0334 44.7376 73.0518 45.0818 73.2071C44.2966 70.9147 45.8669 70.7104 47.2937 69.4795C50.2865 68.5662 53.3196 69.0512 56.2322 69.9297C58.8382 68.4578 61.8737 67.2063 64.7556 66.2559C65.64 65.9638 66.6941 65.9771 67.3592 65.335C67.6021 65.6549 67.3122 65.924 67.9441 65.7989L67.9588 65.127C68.1168 64.9787 69.0597 65.2034 69.4324 65.1084C69.6682 65.0482 69.6545 64.6372 69.8338 64.5352C70.933 63.9094 73.5412 63.23 74.784 62.6807C75.9295 62.1758 75.3923 63.0331 76.1961 63.0147L75.989 62.5879ZM54.9744 104.464C57.1229 104.979 60.0878 104.025 61.2859 106.494C61.4557 106.847 61.3842 109.123 60.7498 109.093C59.5971 108.261 60.7617 106.726 59.2029 105.982C57.979 105.398 56.2744 106.269 55.0056 105.588L54.9744 104.464ZM65.198 90.8077C65.5919 90.8007 67.3208 91.0025 67.7595 91.086C70.8727 91.6771 74.0733 94.1112 70.7644 96.9346C71.8516 97.6115 73.2853 98.6081 72.1062 99.9942L72.1082 99.9991C71.938 100.197 69.3425 101.501 68.9343 101.624C67.899 101.942 64.4389 102.393 63.5144 101.974C62.2246 101.39 63.7432 100.2 63.6678 99.7461C63.5262 98.8908 61.0048 99.0787 60.2996 99.1622C59.1678 99.2967 58.4389 99.915 57.5027 100.133C57.0358 100.242 56.9203 100.247 56.8543 99.7159C57.5783 99.9106 57.3005 99.3725 57.784 99.004C59.5293 97.6713 62.7367 97.1501 64.5125 98.6729L64.3992 100.986C65.494 101.528 70.7682 100.24 71.1931 99.5606C71.9266 98.3854 69.809 98.0238 69.8181 97.1709C69.837 95.6016 72.3467 95.2237 70.2713 93.4805C68.5308 92.0201 66.4528 92.1664 64.3963 91.9532C64.6203 91.5267 64.6206 90.8172 65.198 90.8077ZM30.5779 93.8106C29.8092 93.8106 28.6936 94.3665 28.1062 94.8555C29.4887 95.6134 35.2842 96.1257 33.1453 98.4297L25.6316 95.9053C24.3274 96.4454 22.783 96.7428 21.7429 97.7442C22.8822 98.3213 27.463 99.3851 27.9851 100.296C28.1714 100.62 27.9833 101.04 28.2215 101.219C29.3629 100.554 30.6788 99.8092 31.865 99.2413C33.1644 98.6178 35.2138 98.1729 35.9168 97.0674C37.0535 97.5843 36.3038 96.8239 36.74 96.5782C37.1763 96.3325 38.2003 96.3717 38.7097 96.3555L38.24 96.126C38.1716 95.8502 38.3606 95.5376 38.5965 95.4356C39.0985 95.2157 38.7544 96.1702 39.4168 95.8946C38.9593 95.037 39.8482 95.0318 39.8885 94.2764C39.2495 94.3181 39.0372 94.8604 38.3347 94.9649C37.9598 95.0205 36.606 95.0499 36.823 94.5098H36.3553L36.1219 94.9668V94.9688C36.1123 94.6931 36.0155 94.4125 35.7303 94.3106C35.0807 94.0812 31.4206 93.8084 30.5779 93.8106ZM93.9119 83.9161C96.1287 84.0065 98.228 85.0827 100.589 85.0225C103.169 84.9553 105.549 83.8932 108.002 84.0879L107.999 84.0899C107.067 85.279 104.643 85.717 103.143 85.9141C99.5068 86.3962 97.7095 85.5623 94.4197 85.2725C91.4482 85.0106 88.87 86.2016 86.5564 87.9053C91.3747 89.9104 87.6553 95.3072 83.9148 96.1973C80.8466 96.9274 80.3443 95.2498 78.4129 95.1895C76.578 95.1315 74.8162 97.1197 73.3445 95.5411C74.1869 93.4367 79.6765 92.9546 81.0564 94.1133C81.7026 94.6557 81.3703 95.3517 82.8347 95.1524C85.4125 94.8 89.1104 90.8864 85.1365 89.6416V90.5694H84.1961L84.0564 89.6163C82.1485 89.4517 79.3822 89.6833 79.2879 87.1358L80.7781 86.4034L80.6912 87.3956C80.9034 88.3319 83.8176 88.1656 84.5232 87.7647C85.0208 87.4819 85.125 86.9296 85.4929 86.6329C87.5212 84.9988 91.3083 83.8119 93.9119 83.9161ZM46.9588 92.6534C45.3692 90.9893 43.3062 92.5728 42.0115 93.8106C42.4898 93.8479 42.714 94.3157 43.2488 94.2442C43.7181 94.1816 45.5843 93.4554 46.0017 93.212C46.242 93.0703 46.2447 92.4335 46.9588 92.6534ZM51.9021 90.92C50.1923 89.6659 48.3978 90.5487 46.7234 91.2696C46.8578 91.7448 47.4519 91.6988 47.7986 91.9561C48.2064 92.2575 47.997 92.946 49.0769 92.6563L48.6072 92.1924V92.1895C48.8078 91.476 49.5108 91.9348 49.9754 91.8028C50.2818 91.7171 51.9 91.1035 51.9021 90.92ZM56.5906 74.6905C54.0152 74.4772 49.7915 73.6529 47.4002 74.0469C44.1833 74.5754 41.0843 76.3508 37.9217 77.1807C37.0869 77.8529 37.4522 79.0811 36.2498 79.2413C35.1696 79.385 34.1481 79.0186 33.8816 77.8711C33.6671 76.9555 34.8175 74.9414 34.7019 74.8301C33.0277 75.6642 31.6742 74.7121 29.9929 75.0596C29.8161 75.4027 31.202 77.3565 30.2185 78.1817C29.5418 78.7493 29.0445 78.1352 28.5564 78.1768C27.7286 78.2487 26.3696 78.7798 25.5135 79C25.16 79.3661 25.5473 79.4078 25.8679 79.4541C27.066 79.6256 28.4412 79.5679 29.5779 79.751C31.3584 80.0362 33.054 80.8155 34.8416 81.0635C35.7047 81.184 36.8561 80.8729 37.6131 81.3086C37.7991 81.4177 37.7094 81.7887 37.8885 81.7842C38.0677 81.7796 40.5489 80.4535 41.2517 80.2217C44.6879 79.0975 49.7163 77.8368 53.2185 77.5772L53.4373 77.1485L54.4969 77.7256C50.8366 79.237 46.9186 79.9599 43.1404 81.1514C41.2515 81.7471 39.5253 82.7595 37.5232 82.8106L37.3318 83.2354C37.9568 84.8511 38.3062 86.5412 38.1199 88.2403C38.6643 89.1257 38.1717 90.6645 37.7449 91.587C37.4501 92.2267 37.0367 92.0671 37.0603 92.6582C37.7372 92.4519 38.8795 92.3781 39.4715 92.1788C44.7447 90.4032 50.6875 87.6165 55.8357 85.5303C56.3381 85.3263 57.874 85.3398 58.2136 84.962L58.2185 84.96C58.9213 81.7657 58.3194 78.4178 58.2722 75.1749C58.1352 74.2205 57.2202 74.7415 56.5906 74.6905ZM25.5789 85.8965C26.3973 83.6665 29.261 82.6529 31.4519 83.2325C33.3339 83.7285 35.1052 85.1173 34.5252 87.2637C34.4332 87.6067 32.8633 89.5575 32.5701 89.751C31.0631 90.7408 27.251 90.8332 26.0506 89.3497V89.3477C25.5461 88.724 25.2891 86.6896 25.5789 85.8965ZM54.1668 88.2588C53.8507 88.2982 51.742 89.2922 52.1453 89.6446C52.8198 89.3503 53.6313 90.2426 53.9119 90.2588C54.0651 90.2671 56.41 89.3598 56.7625 89.2041C57.0408 89.0813 57.1875 89.3132 57.0955 88.7198H57.0935C56.1102 88.7847 55.1383 88.1339 54.1668 88.2588ZM31.8904 85.1124C31.4421 84.489 29.69 84.6239 29.1453 84.9971C28.4166 85.5003 27.6595 87.4771 28.3953 88.2002C29.7419 89.5238 33.1026 86.7953 31.8904 85.1124ZM60.3953 84.3204C60.6875 86.2301 58.9183 86.2908 57.659 86.8448C57.3809 86.9673 57.2347 86.7358 57.3289 87.3262L58.8435 88.2676C60.3198 87.4217 62.0626 87.1013 63.5955 86.4268C63.8759 86.3042 64.0195 86.5356 63.9275 85.9424C62.5457 85.9655 61.2419 85.3887 60.3953 84.3204ZM29.1951 1.23832C30.7704 1.21056 30.9546 2.53256 31.7517 2.61137C34.4308 2.18946 38.1523 0.700604 40.6687 2.18168C42.138 3.04628 41.9446 4.91953 40.9353 4.37504C40.5368 4.15946 40.4536 3.65404 39.739 3.32719C36.7449 1.96014 34.0071 4.22399 30.9412 3.77153C31.4916 5.04579 30.5943 5.78097 30.2049 6.87407C30.2665 7.47872 31.3903 7.32637 31.1238 8.90239C30.836 10.6174 30.1218 10.7289 29.2068 11.6143C28.9828 11.8322 29.1217 12.1565 28.8953 12.335C28.3551 12.7639 26.0177 13.8537 25.2937 14.0205C24.8448 14.1249 22.959 14.3932 23.157 13.5938C23.2065 13.3968 26.1376 12.354 26.8103 11.8555C27.8504 11.0813 28.5751 9.89644 29.2849 8.84867C28.0727 8.60528 27.386 9.62554 26.4285 10.0938C24.8885 10.8471 23.9073 10.8443 22.2117 10.6983C22.556 13.1437 22.0113 15.55 21.7283 17.9815L22.6668 18.6631C22.3696 18.9297 22.1458 19.5489 21.8699 19.753C21.5775 19.9686 21.1764 19.6257 20.9217 19.9502C20.325 20.7154 19.4449 23.0977 18.7752 24.1153C18.5488 24.4606 18.1321 24.5214 17.9646 24.7647C17.7029 25.1494 16.1319 27.5874 16.115 27.7618L16.7967 28.6446L15.8533 29.461L16.3181 30.1475C15.5235 30.0571 15.8954 31.732 15.8484 32.0987C15.8225 32.298 15.1151 32.0504 15.6101 32.9288L14.908 32.6993L15.3719 33.5079L14.4617 34.3965L15.1385 35.2422L14.4666 35.2725C14.4312 35.8403 14.1715 36.4104 14.1785 36.9805C14.1832 37.3375 14.7454 40.8659 14.8562 41.1719C14.9835 41.5215 15.3102 41.5104 15.3201 41.5381C15.3767 41.6888 15.0965 41.9185 15.1814 42.1387C15.3045 42.4563 16.3156 42.9842 16.5515 42.3057L16.0818 41.962L16.5301 41.8584L16.3181 41.2666L17.9666 41.4961V40.8028L16.5535 41.0323C16.4008 39.8225 18.2237 39.0108 17.7332 38.0235L18.4363 38.253L18.2215 37.4278C19.0535 37.2326 18.1719 34.7927 19.615 35.2422L19.3797 34.5518H20.0896C20.3773 33.9678 19.627 34.1573 19.5984 33.9512C19.4734 33.0217 20.3513 32.8939 20.5164 32.6436C20.797 32.2167 21.2731 30.4232 21.9851 29.4034C22.4545 28.7288 22.8671 27.7129 23.5652 26.7393C23.8862 26.2893 26.5772 22.8775 26.7918 22.7315C27.4992 22.2448 28.4492 22.7943 27.867 21.3575L28.4549 22.0528L29.0418 21.3545C28.813 22.4116 29.4989 21.7631 29.6404 22.0274C29.438 22.9218 30.1945 23.2302 30.1922 23.3067C30.1661 24.1686 29.4175 25.0306 29.3416 25.4434C29.2402 26.0067 29.3458 27.2701 28.6336 27.6573L28.8054 28.0655C28.2539 28.4056 28.3412 27.1687 27.865 27.6065C27.2613 28.1605 27.7826 29.0303 27.7566 29.2413C27.7021 29.6785 27.1651 29.6674 27.1619 29.8291C27.1501 31.2941 26.5203 31.2365 26.1453 32.5137C25.6995 34.0344 25.9518 36.8255 25.3504 38.9141C25.039 39.9918 24.1268 41.2016 23.8601 41.9063C23.6408 42.4858 24.3269 42.8037 22.9119 42.6553L23.3816 43.1123C21.7449 43.015 22.3506 45.1083 21.9969 45.5557C21.6065 46.0521 18.682 47.4351 18.6746 47.6299L19.6131 48.2051C19.2004 48.4044 17.7853 49.5119 17.6199 49.8389C16.9878 51.0953 16.5849 53.2054 16.3113 54.5313C16.2755 54.707 15.9338 54.6772 15.8631 54.8741C15.5966 55.6158 15.5328 56.6403 15.0164 57.2383L14.8982 56.545L14.4265 56.8975L14.9002 57.9336L14.1814 58.0821C13.9668 58.4576 14.1861 59.0533 14.1414 59.211C14.0966 59.3686 13.8182 59.3038 13.7781 59.4336C13.606 59.9784 14.0585 60.9773 12.783 60.4815C13.1082 62.1711 11.8703 64.1157 10.6511 65.2422L10.8933 66.0381L10.4265 65.8008C10.3652 65.8657 10.8629 67.3285 9.95486 67.1963L10.6599 67.4258C9.8793 68.1838 10.6695 69.0391 9.47146 69.1944L9.48318 70.6641L8.76638 70.8125C8.81826 71.3503 8.5473 71.7981 8.41287 72.2872C8.17938 73.1356 8.00698 74.5891 7.69802 75.5372C7.42209 76.3831 6.64594 75.9869 6.55154 77.7413C6.52795 78.1655 6.40832 79.3529 6.41775 79.5616C6.42209 79.6242 6.95072 79.7412 7.06619 80.5645C7.16991 81.2967 6.89387 81.9599 6.95486 82.3262C7.05391 82.915 7.95518 83.0222 7.11795 83.9795C7.82765 84.1627 7.30426 84.4616 7.60134 85.0225C7.11551 85.0712 6.49745 84.7539 6.6531 85.4864C7.94551 85.3079 8.55853 86.5805 7.71658 87.5704C7.53262 87.0117 6.89121 86.8329 6.6365 86.5362C6.12961 85.9451 6.2426 85.1452 6.10818 84.7256C5.72372 83.5251 4.67446 82.2272 4.36306 81.2051C3.98587 79.9678 5.05367 80.7057 5.00271 80.2803C4.48401 80.0972 4.72146 79.3068 4.65798 79.2276C4.21701 78.6713 3.04962 79.5262 3.35818 78.3145C3.76847 78.238 3.40589 79.1507 4.06814 78.6622C4.3016 78.4883 4.16725 77.5514 4.52322 77.2569L3.82986 77.1553C3.76854 76.5897 4.12289 76.0495 4.23611 75.5928C4.30686 75.3054 4.09639 75.0638 4.10818 74.9502C4.12122 74.8371 4.78722 74.8755 4.53982 74.0557C4.49234 73.8983 4.05211 73.9303 4.05447 73.7959C4.06653 73.1744 4.99772 71.1725 5.19119 70.4932C5.26666 70.2313 5.02877 69.9227 5.04763 69.8555C5.06966 69.7832 5.75457 69.2918 5.48123 68.5899L6.18435 69.0538L5.96462 68.2286L6.43435 68.0108L5.95486 66.9786C7.03973 66.6355 6.87067 64.3312 7.40603 63.4248C7.94129 62.5187 8.43617 61.8045 8.94314 60.794C9.03952 60.5993 8.49051 60.2675 9.48318 59.9082L9.00271 59.6651C8.89905 58.5549 9.72165 58.4248 9.97634 58.0655C10.3487 57.5392 10.4525 56.3902 10.7283 55.6856C10.7519 55.6231 11.7316 54.9656 11.7781 54.8858C11.9243 54.6262 11.2737 53.7589 12.0779 53.6592L11.6062 53.0821L12.2761 53.0518C12.1606 52.2615 12.9646 51.7262 13.0261 51.0889C13.0969 50.3703 12.1529 49.0136 12.7566 48.084L12.3133 47.9825C13.0467 47.2986 12.0825 46.8833 12.5447 45.9004L12.0779 46.1348C11.3916 44.9966 11.8021 42.5691 11.3611 41.6836C11.0805 41.1205 10.6437 40.8657 10.4881 39.8135C10.4385 39.4774 11.0822 38.8838 10.1912 38.9532L10.8933 38.4903L10.4246 38.2608C11.7853 37.0044 9.78283 35.7706 10.8933 34.6719L10.4197 34.4424L10.8416 34.2149C10.8275 34.0027 10.891 32.8171 10.9334 32.7569C11.0963 32.5204 12.3884 32.2146 11.1267 31.67C11.3579 31.415 11.4578 31.0858 11.6111 30.7891C12.6276 28.8095 13.9241 26.1111 14.7967 23.8975C14.9476 23.5151 15.6154 23.3624 15.8513 23.045C16.7098 21.8813 18.0471 19.4682 18.7947 18.126C19.2215 17.3612 19.6506 16.4268 19.8582 15.5762L20.3113 15.8028C21.1979 13.8835 21.3581 11.9988 20.7332 9.95903C20.3252 8.62629 18.2382 8.24382 20.0769 6.65629C20.492 6.29699 21.0023 6.1715 21.3797 5.8516C23.6083 3.96703 25.9878 1.29396 29.1951 1.23832ZM41.9236 87.2979C40.7327 86.8967 41.6927 81.3174 43.3719 82.9864H43.3689C43.5859 83.202 44.2111 87.0499 43.2771 87.2979C42.8691 87.3327 42.3009 87.4254 41.9236 87.2979ZM48.1844 80.7823C48.4697 80.1031 49.4934 80.0243 49.8943 80.627C50.3494 81.3133 50.7273 85.2278 49.9822 85.6709V85.668C47.3481 86.3286 47.5265 82.3473 48.1844 80.7823ZM55.7918 77.6006C56.1526 77.2181 56.6361 77.4261 57.0418 77.6602C57.2894 79.8647 57.176 82.5261 56.6336 84.668L55.1404 84.795C54.9753 84.7574 54.7136 84.2594 54.657 84.0879C54.4448 83.4388 54.2066 82.1644 54.3621 81.3116C54.4564 80.7831 55.5062 77.9003 55.7918 77.6006ZM63.6922 77.7256C63.5106 75.2547 63.3524 73.0198 60.1619 73.4415C60.8882 76.4897 60.7601 79.6634 60.8992 82.7881C61.097 83.3913 63.0558 83.2552 63.6912 83.3946C63.5969 81.5381 63.8265 79.5681 63.6922 77.7256ZM69.8699 72.6788C70.16 71.988 71.7428 71.6403 71.9363 72.6299C72.1745 73.8515 72.2804 77.5884 70.1414 76.3506C69.2452 75.8314 69.5185 73.5133 69.8699 72.6788ZM73.6365 71.2852C73.842 70.6087 74.8586 70.4981 75.1863 70.9454H75.1883C75.6125 71.5254 75.3131 74.6164 74.2166 74.336C73.3843 74.1224 73.4478 71.9133 73.6365 71.2852ZM56.0789 71.9024C54.5884 70.6484 49.0845 69.568 48.3719 72.2774C51.3104 73.2904 54.5553 72.8809 57.5623 73.669C57.4302 72.8485 56.4659 72.6858 56.2088 72.4424C56.0956 72.3358 56.1688 71.9809 56.0769 71.9043L56.0789 71.9024ZM77.3484 69.3731C80.2139 68.5455 78.4123 74.9224 76.9383 72.9219C76.6062 72.4687 76.9052 69.6702 77.3484 69.3731ZM61.6482 7.62504C66.3438 5.10071 66.3772 10.4733 65.033 13.3848L65.0232 13.3985L64.6414 13.6426C64.379 15.3165 59.7428 19.3122 58.3679 19.4883C57.2667 19.6297 56.8182 19.1826 56.2664 18.3389L54.7595 20.1163C54.5897 20.7421 55.5542 21.1855 55.8797 21.7256C56.6791 23.0585 56.8772 25.2052 56.5164 26.6934C56.3322 27.4486 55.6562 27.4725 55.8943 28.5108L55.2312 28.5381L55.2058 29.3028L55.6795 29.5625C54.8094 29.6761 53.9771 32.2903 53.7576 32.4209C53.5383 32.5508 53.1249 32.4302 52.8513 32.458L53.0896 33.1485H52.3777L52.6258 33.71C52.6315 33.8442 51.708 33.8749 52.1463 34.3057C52.2288 34.3891 52.7126 34.1203 52.614 34.5323C52.0433 34.7015 51.9765 35.2278 51.2029 35.003C52.2217 36.0298 51.2224 36.2828 50.8709 37.1055C50.5195 37.9284 49.3187 40.6712 49.2361 41.2901C49.1913 41.6251 49.2059 44.1575 49.3191 44.2618C49.7363 44.352 49.7857 44.1431 49.9861 43.8789C50.5026 43.2044 50.9956 41.9876 51.5711 41.2666C53.6111 38.7029 56.6917 37.1871 59.3426 35.4717C60.1089 34.9756 60.4321 33.7167 61.3377 33.8418L61.1013 33.1514C62.4952 33.6637 62.8608 31.2476 63.698 30.376L64.1697 30.4903L63.9129 31.3897L64.4177 31.6495L64.1648 32.9073L63.4597 32.919L63.9314 33.8418C62.6935 33.7354 63.5045 35.101 61.7947 34.8692L61.3347 36.3868L60.6345 35.6944C60.6769 36.2389 60.4975 36.5235 59.9646 36.6602L60.1609 37.0801L59.2195 36.8526L59.4295 37.4414L59.0564 37.5928L59.2097 38C57.9888 37.9076 58.2926 38.8717 58.1443 39.1709C57.9604 39.5371 56.9768 39.8685 56.9246 39.9219C56.7902 40.0633 56.9318 40.4391 56.7244 40.5782C56.2011 40.9303 54.8412 41.1433 54.5525 41.294C54.371 41.3913 52.3669 44.357 52.2078 44.6622C51.9744 45.1048 51.2434 46.7804 51.2996 47.1612C52.5519 48.7838 52.9978 50.8821 53.5662 52.8223H52.6228C52.4556 53.6032 53.3232 53.0009 53.0779 53.7403L52.616 53.8653L53.0926 54.9082L52.6258 54.8184L52.3992 55.5069L51.6824 55.3702L52.1297 55.9288C51.7598 56.5522 52.0336 57.2664 51.8025 57.92C51.7365 58.1052 51.6277 58.23 51.451 57.9893C51.0359 57.4238 51.0523 57.9239 50.2625 57.917C50.7483 58.9161 50.2035 59.9264 49.0857 59.5372L49.5545 60.46H48.6111L48.8474 61.3848L47.8963 61.253C47.8703 62.9888 46.3149 62.3405 45.7039 62.9913C45.4397 63.2717 45.5905 63.6456 45.5457 63.7012C45.5285 63.7191 45.2548 63.492 45.1394 63.5498C44.8752 63.6845 44.1751 64.4753 43.9676 64.5704C42.9416 65.0501 41.3046 65.2005 40.3094 65.5713C40.0949 65.6528 39.9953 66.2271 39.4178 66.0186L39.659 66.4776L38.7156 66.4825C39.1 67.0179 39.2648 67.0414 38.8308 67.6348C38.3406 68.3065 38.6563 67.1989 38.1306 67.4073L37.3289 68.7774L37.7722 69.0254C36.9022 69.0092 37.034 69.7947 36.7537 70.1241C36.3505 70.5969 33.5726 72.011 32.8386 72.169C31.9521 72.3613 29.5659 72.7689 29.1453 72.044L28.6941 72.2383C28.2673 71.5362 27.579 72.4096 27.6355 70.8848C26.9281 70.7411 27.3432 71.6327 26.4969 71.3038C25.7233 70.2236 24.9117 66.7263 27.1658 67.1778L26.9422 66.5127L27.6355 66.128C26.395 64.2017 26.9709 62.8943 27.6902 60.9795C28.7773 60.6387 29.4731 59.6461 30.6404 59.3633C32.2157 58.981 33.6782 59.8046 35.1804 60.2334L34.9441 59.545C35.5314 59.1092 36.7507 59.463 36.5974 58.8487H37.0642L37.1043 59.2432C37.8755 59.0763 39.0555 59.6353 39.2088 60.4512L39.8972 60.2354L39.7771 60.7061C41.0266 60.9913 40.7246 61.6382 41.201 62.5538C41.7313 62.0163 43.0039 62.1592 43.2761 62.0645C43.7903 61.8814 47.1442 59.2335 47.7928 58.6006C49.7667 56.6766 50.8232 53.4479 49.8445 50.8077C49.453 49.7531 48.2883 48.8098 48.0594 47.9082C47.9461 47.4585 48.1864 46.8487 48.1463 46.8116C48.0935 46.7633 47.6296 46.8694 47.3328 46.5684C45.7126 44.9272 46.5029 40.5522 47.201 38.5772C47.84 36.7719 48.5286 35.891 49.4812 34.4541C49.8161 33.9489 49.6232 32.6944 50.7429 32.9073C50.2953 31.9783 50.9958 32.1914 51.2293 31.8252C51.5476 31.3246 51.1325 30.6178 52.158 30.8262L51.9178 30.1329H52.6297L52.4344 29.709C53.4555 29.4679 53.2547 28.3986 53.6013 27.5479C53.6816 27.3534 53.9582 27.3374 54.0125 27.1661C54.5832 25.4045 54.76 23.3552 54.1541 21.5704L53.4558 21.3243C53.1564 21.9894 52.5951 22.3235 52.1541 22.8379C51.3711 23.7536 50.4859 24.6204 49.7029 25.5245C49.4623 25.8029 48.6085 28.0121 48.0213 27.1289C46.7078 25.1493 52.545 19.5992 53.6062 17.7842C54.2974 16.604 56.6533 12.1103 54.5144 11.4659C53.8305 11.2596 52.661 12.4621 51.5691 11.3731C50.3522 10.1561 52.3707 8.26859 53.5877 7.80961C55.0594 7.2557 59.1439 7.328 58.866 9.52055C60.2146 9.36282 60.6322 8.1722 61.6482 7.62504ZM81.9529 67.8897C83.1553 68.1476 83.6104 71.0401 82.7332 71.5362V71.5381C82.4101 71.7212 81.3133 71.5569 81.1316 71.1768C80.851 70.588 81.5237 67.9198 81.9529 67.8897ZM38.4734 61.8614C36.8803 61.7502 36.312 61.7541 35.2605 62.8848C34.9893 63.1769 35.3098 63.7471 34.1072 63.7286C33.2323 63.717 33.1027 62.6786 32.7019 62.0967C32.1619 62.8987 31.5033 62.0826 30.7039 62.4395C30.5766 62.4974 29.7027 63.3567 29.6404 63.4873C28.9494 64.95 30.7771 65.5858 31.4021 66.6104C31.4054 67.2288 28.299 67.0787 27.9685 68.7979C27.7091 70.154 30.0107 70.4204 31.0154 70.337C31.4304 70.3021 31.8126 70.022 32.2488 69.9756C32.659 69.9341 33.1 70.3258 33.5291 70.0967C33.8095 69.9462 33.8688 69.4899 34.076 69.3457C35.0618 68.6758 35.2344 68.5708 36.1306 67.7803C36.5246 67.4352 37.3146 67.7107 37.0623 66.4893L37.7674 66.7237L37.8074 66.0655L38.4744 66.0254C38.7761 65.3858 37.9985 65.307 37.989 65.1934C37.9632 64.9174 38.0477 64.1087 38.0359 63.585C38.0336 63.4576 38.4126 63.5129 38.4627 63.335C38.5216 63.1243 38.3049 62.2239 38.4734 61.8614ZM84.7898 66.9571C85.7238 66.7647 85.3888 69.4238 85.1365 69.9639C84.2076 69.6182 83.7998 67.1615 84.7898 66.9571ZM98.5701 0.0537532C99.188 -0.402905 99.4946 2.19138 99.5135 2.502C99.5935 3.83507 99.2043 6.66685 97.8601 7.31352C97.6738 7.4036 97.4028 7.20966 97.3933 7.23051L97.3806 7.28227C97.3627 7.45337 97.4599 7.8079 97.3299 8.08793C97.021 8.75312 95.3636 10.0627 94.7195 10.9551C93.6228 12.4758 92.0686 14.5486 91.4295 16.25C91.0969 17.1355 91.4974 18.7002 90.5564 19.1407L91.1482 19.9541C91.6293 19.9889 91.5656 19.4994 92.0183 19.1934C94.4475 17.5453 97.3865 16.0923 99.5232 13.8252C100.351 12.9444 100.906 11.6607 101.868 11.1553L101.403 10.8184L102.146 8.8809C103.681 8.54257 104.36 8.64479 104.174 10.3438C103.999 11.9455 102.797 13.795 101.757 14.8682C99.8864 16.7945 97.8723 17.7355 95.6248 19.2608C94.4597 20.0512 93.2614 21.7878 91.7332 21.8086C91.5696 21.9516 93.8505 24.84 94.0515 25.2022C94.8911 26.7112 95.766 28.8739 95.5066 30.6055L97.3513 28.584C96.2668 25.6262 101.019 20.9765 103.535 20.0655C104.016 19.8917 104.426 20.2253 104.46 20.1934C104.502 20.1494 104.356 19.6253 104.832 19.2823C106.138 18.3411 109.317 17.5134 109.1 20.003C108.761 23.888 102.506 29.1267 98.6834 29.6807C97.7542 31.906 96.2188 33.7399 95.1433 35.9258C94.3982 37.4371 94.219 38.9025 92.9998 40.3164C92.672 40.6961 92.1632 40.3694 92.6795 41.2569H91.9646L92.2 41.712C91.1909 41.6241 91.068 42.509 90.5398 42.9795C90.1978 43.2854 89.5333 43.2929 89.3777 43.8028C90.4671 43.6659 91.5943 42.9518 92.5564 42.4141C96.3652 40.2838 98.9381 37.8911 102.36 35.376C104.384 33.8879 108.794 33.3203 107.71 36.9268C107.233 38.51 103.721 40.9585 101.87 40.5645L102.303 40.3018C102.954 39.1869 104.226 38.7301 105.174 37.6778C105.832 36.9476 106.608 36.0461 106.575 35.0215C103.95 34.2009 102.653 36.5097 100.917 37.8936C100.556 38.1809 99.9922 38.1902 99.6267 38.4776C98.8061 39.1266 98.0919 40.1121 97.2713 40.7959L97.0379 40.335C96.6534 40.59 96.9357 40.9511 96.5867 41.2618C95.5794 42.1589 91.5356 44.2386 90.2078 44.7393C89.3139 45.0754 85.2688 45.9467 85.0447 46.0997C84.5333 46.4542 85.1624 46.6071 83.4363 47.3047C83.2172 47.3928 83.2337 47.7199 83.0926 47.7481C82.4465 47.8709 82.1207 47.3054 81.7576 47.3213C81.4133 47.3376 80.7876 47.8609 80.4197 48.044C79.7618 48.3708 78.9935 48.8048 78.4158 49.3633C78.2626 49.5116 77.3982 50.3727 77.3426 50.4366C77.0996 50.7171 76.0449 52.752 75.9246 52.8262L75.2576 52.6114C75.0524 53.1189 74.7743 53.6149 74.489 54.083C73.8405 55.1446 73.5525 55.9953 72.8758 57.0684C72.772 57.233 72.4743 57.2407 72.4578 57.2754C72.4132 57.378 72.4253 59.1186 72.4324 59.4102C72.449 60.0545 72.9224 60.8006 72.5242 61.6348L70.6961 59.7207C70.2857 57.9823 70.8092 56.4475 71.4978 54.8389C73.2548 50.7314 77.314 45.801 82.0213 45.1495L82.0711 44.2725C83.1984 44.9053 83.6091 43.2437 84.7859 43.7862L84.8992 43.1143L85.4861 43.5772C85.7008 42.6202 86.3165 42.7613 86.491 42.5967C86.6249 42.4689 86.4748 42.0918 86.6892 41.9366C87.2061 41.568 89.3392 41.111 89.0232 40.1075C88.3394 40.7354 87.5215 41.2038 86.6209 41.4541C86.4723 41.4959 85.7997 41.9386 85.8445 41.3799C85.8644 41.1384 89.3103 39.069 89.8533 38.6075C91.7753 36.9663 92.8132 35.2442 93.0349 32.7061C93.4241 28.2486 88.007 24.1478 88.1883 19.375C88.2496 17.7663 88.9226 15.3686 89.6443 13.9082C91.4087 10.334 97.5046 6.24528 98.2029 2.85649C98.3444 2.16577 98.0444 0.916063 98.5701 0.0537532ZM46.4842 50.9834C46.5077 51.3728 46.6778 51.7064 46.824 52.0586C46.8546 52.1326 47.129 52.14 47.1424 52.1768C47.2343 52.4364 46.562 52.7503 47.4275 52.9473L45.781 54.4561L45.3094 53.7579L45.2771 54.6553C44.2536 54.6994 44.2984 55.2073 44.3621 56.0743C44.0602 56.211 44.1021 55.096 43.659 55.6123C43.4114 55.9021 44.7952 57.2581 44.0955 58.125L42.4793 58.3877L42.7127 57.6963C40.9771 57.8606 40.0321 56.194 40.9754 54.7569C41.3835 54.1336 42.2272 53.8808 42.4158 53.6954C42.97 53.146 43.7463 51.8297 44.8123 51.584C45.2911 51.4729 46.2462 51.9106 46.2556 50.9834H46.4842ZM98.9549 47.3028C99.0893 47.2819 99.887 47.7172 99.9295 47.7891H99.9334C100.351 48.4891 99.8017 51.7801 98.908 52.3809C98.6932 52.0798 97.9289 52.1287 97.8982 52.087C97.8393 52.0081 97.884 51.7394 97.7732 51.5401C97.719 51.4404 97.4412 51.4281 97.4011 51.2774C97.1798 50.417 97.9882 47.4539 98.9549 47.3028ZM3.69802 40.794C4.68378 40.2585 5.6155 39.6949 6.7781 39.9961C7.06815 40.0726 8.74458 40.8535 8.30642 41.2569V41.2549C4.92228 41.3825 3.41748 44.7202 2.23123 47.4346C2.6321 47.8773 2.42285 48.568 2.56423 48.8926C3.30714 50.5871 4.86809 50.527 6.50955 50.5479C6.76894 50.6545 6.82974 50.6853 6.78494 50.9913C6.66604 51.7885 4.01423 52.6897 3.70974 51.668C3.25411 52.548 0.583211 50.9934 0.766383 50.752C1.25458 50.7937 1.30467 50.7796 1.24099 50.2881L0.0642341 49.9366L0.766383 49.709C0.622478 49.5143 0.267051 49.34 0.189234 49.1407C0.050043 48.7827 -0.291753 45.4089 0.535914 45.293C-0.0843501 44.3449 0.811536 44.4839 1.15115 43.96C2.02599 42.611 1.96255 41.7397 3.69802 40.794ZM99.2635 42.5274C99.6001 42.3816 99.7138 41.8336 100.219 41.9561C99.6968 42.4546 99.5815 43.2465 99.2918 43.7002C98.7611 44.5299 98.0564 44.8037 97.7381 46.1319C97.5448 46.9407 98.2093 47.6314 97.4129 47.8448L97.6267 48.668L96.9246 48.4356C97.0967 49.845 95.1032 49.0622 94.7967 50.2862L94.5633 49.5948L94.0965 50.0567C94.3464 48.7007 94.8725 46.6791 95.5965 45.5108C95.7026 45.3392 98.2663 42.7429 98.4431 42.627C98.7072 42.4532 99.0065 42.636 99.2635 42.5274ZM106.427 40.5225C107.964 39.6695 110.956 38.1328 112.499 39.5069C113.909 40.7655 112.521 42.8543 111.547 43.9346C111.268 44.2429 110.824 44.1826 110.664 44.3379L110.66 44.333C110.523 44.4652 110.539 44.8577 110.362 45.0733C109.633 45.947 109.049 46.4944 108.928 47.7344L107.768 47.7413C107.629 47.0923 108.009 47.2889 108.475 47.2774L108.469 46.2344L108.007 46.1231C107.448 47.1685 105.889 51.2523 105.177 48.4366L105.882 48.6661C104.964 47.827 106.041 47.2448 106.402 46.2852C106.812 45.1958 106.773 43.2047 108.237 42.8799C108.405 43.0746 107.66 44.7015 108.704 44.4981C108.713 43.2999 110.687 42.9725 111.022 42.6133C111.058 42.5762 110.867 42.161 111.077 41.8643C111.268 41.5933 111.751 41.5281 111.789 41.3311C111.869 40.9116 111.419 40.2001 111.772 39.6416C111.311 39.2415 106.501 41.7371 106.089 42.2911C105.811 42.6665 106.237 43.0557 106.089 43.3038C106.013 43.4289 104.445 44.6675 104.03 45.3467C103.89 45.5775 102.867 47.7507 102.837 47.8897C102.783 48.1352 103.235 48.4154 103.273 48.7813C103.365 49.6529 102.087 50.0889 101.761 49.3633C101.648 49.1106 101.429 47.9016 101.431 47.6114C101.431 47.5302 102.153 45.7548 101.167 46.3575C101.129 46.3871 101.512 47.2678 100.933 47.2793L100.967 46.1436C101.9 46.2849 101.645 45.4503 102.044 44.792C103.197 42.8866 104.462 41.6097 106.427 40.5225ZM24.2986 31.7305L23.6365 32.1407L23.8601 33.1563L22.9197 32.9268C23.5062 33.8489 22.0726 33.6454 22.6834 34.7764L22.0515 34.4405L22.2097 33.3897L21.5886 34.1407L21.5017 35.0079L22.2068 35.4737L21.5017 35.3604L21.992 35.8379L21.5017 37.5606L20.7986 37.3262C21.2703 38.2395 20.0749 39.7948 20.0984 40.4532C20.1126 40.8495 20.7989 41.3572 20.5633 41.9551H19.6179C19.8042 42.866 19.9426 43.6002 18.9148 44.043C19.2003 44.9352 19.8298 43.8795 20.4285 43.5596C21.4497 41.0978 22.9361 38.805 23.9031 36.3223C24.5893 34.5586 24.3481 34.9613 24.3103 33.2715C24.2917 32.3445 25.0747 31.8504 24.4451 31.3057L24.2986 31.7305ZM100.221 41.9571L100.219 41.9561C100.219 41.9554 100.221 41.9548 100.221 41.9541V41.9571ZM39.6521 19.9561C39.1695 18.3524 42.8602 17.8609 43.8318 18.2735C45.7676 19.0942 44.3191 21.1693 44.3875 22.1661C44.4183 22.6293 44.9092 22.8126 44.8269 23.7461C44.5887 26.5185 40.324 30.7656 38.1306 32.4717C37.817 32.7149 37.3193 32.6105 37.1306 32.7588V32.7618C35.5057 34.0413 33.3957 35.9587 32.4783 37.8038C32.3393 38.0818 32.3644 38.3988 32.3338 38.6954C31.0767 39.08 28.6855 38.1232 28.5769 36.7325C28.525 36.0834 29.2705 35.5963 28.3318 35.3506C29.0959 34.3539 29.2895 32.933 29.8084 31.9317C30.707 30.1931 34.3386 26.8436 36.0037 25.7471C38.1569 24.3285 40.6384 23.1072 43.1336 22.4512L43.8953 19.0313C42.2963 18.869 41.1639 20.1114 39.6521 19.9561ZM42.7156 23.8946C42.3761 23.839 42.1048 23.9113 41.7888 24.0225C38.3008 25.2627 32.846 30.0981 31.2918 33.3897C30.7729 34.4884 29.78 37.2581 31.6404 37.3233C32.5933 32.6965 37.7469 30.8563 40.5935 27.4766C40.952 27.0524 43.0393 24.1982 42.7185 23.8946H42.7156ZM5.13259 32.9219C6.28812 32.6971 8.33026 33.8344 7.22244 34.5205C6.76971 34.801 6.20147 34.6975 5.7322 34.9082C4.6026 35.4112 4.11398 36.7764 2.22048 36.1299V36.127L1.9324 35.3789C2.60219 35.1077 3.11441 33.7489 3.65212 33.4336C3.80079 33.3462 4.08812 33.5729 4.30252 33.4873C4.53832 33.3946 4.64696 33.017 5.13259 32.9219ZM116.494 30.4815C117.536 31.1676 116.013 34.1918 114.598 33.3877L114.829 34.3038C113.704 34.89 112.862 34.8922 111.65 34.9942C111.452 35.022 111.497 34.5478 111.535 34.4454C111.667 34.0792 114.394 32.6721 114.841 32.1202C115.187 31.6913 115.304 30.9099 115.57 30.4092L116.494 30.4815ZM82.0935 19.2823C84.1996 17.9378 87.4873 18.1578 87.7302 21.1133C87.0088 20.9996 86.8083 20.4666 85.9617 20.4063C83.1082 20.2024 83.1836 23.5861 84.4334 25.2784C83.2165 25.64 82.2566 25.5059 81.3533 26.542C80.9523 27.0012 79.8632 29.2399 79.9881 29.75C80.4739 31.7273 84.1202 28.8905 84.7947 28.7676C86.1083 28.529 88.4165 28.9873 89.8504 28.8692C88.9824 30.0907 86.851 30.1903 85.5515 29.6641C85.3251 29.5714 85.4286 28.9949 84.8084 29.2383C83.6953 30.9095 82.3482 32.1286 80.1267 31.709C79.3041 31.5537 79.0045 30.8932 78.3328 31.0411L77.6248 28.8604C78.7826 28.4617 77.9648 27.7824 78.1297 27.0245C78.1533 26.9178 78.9129 25.8651 79.2478 26.2012L79.2429 25.3995C80.0398 25.4688 80.3091 24.6592 80.9246 24.2559C81.1321 24.1219 81.5604 24.1545 81.5965 24.1153C81.6743 24.0365 81.3348 22.4762 81.3631 21.9268C81.3701 21.7625 81.612 20.3039 81.6668 20.2325C81.879 19.9705 82.5839 20.1236 82.0935 19.2823ZM111.185 25.0508C112.32 23.9127 116.888 21.3425 118.152 23.0645C118.558 23.6185 118.134 25.8066 117.825 26.3702C116.884 28.0855 112.971 31.11 110.888 31.2422C110.131 31.2909 108.639 31.099 108.945 30.1416C111.289 30.946 114.068 28.5906 115.405 26.8799C115.797 26.3763 117.579 23.7327 116.575 23.4424C114.922 23.6881 113.072 24.7892 111.77 25.8555C111.48 26.0946 110.001 28.2451 109.652 27.2461C109.589 27.0659 109.976 27.2184 110.11 26.959C110.476 26.2543 110.518 25.7207 111.185 25.0508ZM65.4578 19.7315C66.158 20.246 65.2814 21.0547 65.1609 21.75C64.977 22.8001 64.76 25.7766 65.4109 26.6065V26.6045C65.5929 26.8364 66.6338 27.4152 66.9715 27.4991C69.936 28.2246 71.1603 27.0841 72.6414 24.7012C71.9457 23.999 71.1461 24.9539 70.533 23.7764C71.816 22.3856 74.913 21.1919 75.9295 23.3477C76.014 23.6882 75.4769 23.8806 75.3611 24.1377C75.196 24.5017 74.9124 25.5471 74.7049 25.918C74.028 27.1327 71.1722 29.2404 69.6345 29.6182C69.0685 29.7573 67.701 29.8704 67.1726 29.6758C66.9345 29.5878 66.0126 28.1487 65.7058 27.8145C65.213 27.2767 64.5905 27.5828 65.0691 26.7022C64.5409 26.6489 64.2436 25.8558 64.1775 25.3829C63.8686 23.2016 63.965 21.4538 65.4578 19.7315ZM107.763 19.4952C107.584 19.3101 106.109 20.0119 105.818 20.1836C104.207 21.1364 102.579 22.4716 101.025 23.6446C100.353 25.0909 98.3963 26.5234 99.5115 28.1807C99.6742 28.3082 100.344 27.928 100.516 27.8213C102.41 26.6505 107.023 22.499 107.653 20.4268C107.747 20.1163 107.804 19.8196 107.761 19.4952H107.763ZM14.2215 15.0821V15.0791C14.2781 15.1232 15.1671 14.7319 15.3699 15.4922C15.6408 16.5119 14.1415 17.2511 13.2713 17.5108C13.0472 17.578 12.6646 17.3557 12.575 17.4229C12.4855 17.4906 12.4291 18.0904 12.1912 18.3477C12.0261 18.5262 11.693 18.3827 11.5916 18.4707C11.3653 18.6702 11.2778 19.3397 10.8015 19.6387C10.599 19.766 10.2483 19.6947 10.198 19.7383C10.132 19.7963 10.5374 21.1066 9.48318 21.1182L9.95291 21.461C8.91298 22.2467 8.2663 24.9212 8.64334 26.0967C8.78951 26.5532 9.5722 26.6673 9.71169 27.251L10.2683 27.3399C11.4051 27.0385 13.0187 23.9876 14.4314 24.4698C13.4457 25.2509 11.4697 27.5111 10.4177 27.9356C9.87531 28.1535 9.54474 28.0973 9.00466 27.9512C8.73353 27.8771 6.79607 26.7005 6.66287 26.5284C6.46955 26.2758 6.66242 25.6342 6.18435 25.3975L6.6531 25.2813L6.20974 25.0332L6.41775 23.8946L5.71462 24.127L5.95486 23.2022L6.42166 22.9698L5.71462 22.7403L6.61111 22.2256C5.85893 20.5938 7.82775 20.4059 7.60134 18.8018L8.53982 19.0313L8.07107 18.3409L9.0115 18.336L8.80447 17.6827C9.53288 17.6869 9.60392 16.4188 9.75955 16.2959C9.95966 16.141 11.9104 16.2054 11.8445 15.3321L12.2078 15.8047C12.9506 15.5592 13.8702 15.5961 13.9646 14.6368H14.1951L14.2215 15.0821ZM66.0476 14.2793C67.6114 12.8909 70.9672 11.7071 70.2927 14.8594V14.8614C71.7455 14.3606 72.9746 13.2138 74.4226 14.3936C74.6207 15.4622 74.6177 17.0011 74.0564 17.9375C73.8913 18.2134 73.2976 17.9145 73.8279 18.795C72.8965 18.5818 73.2121 19.2449 72.8914 19.6065C71.9292 20.689 70.4556 22.4373 69.2293 23.1954C68.0029 23.9534 65.7973 24.5604 65.8162 22.502C66.9317 23.0537 68.6773 21.5605 69.5027 20.7979C71.0592 19.363 72.7784 17.0032 72.8845 14.8614C72.549 14.5005 69.4154 17.0354 68.6443 16.4815L68.8709 17.1495L66.1677 19.7227C65.8729 18.916 64.5026 19.3815 63.7078 18.7696C63.9104 18.306 63.6847 17.6248 63.8474 17.2354C63.9725 16.9341 64.3522 16.9409 64.364 16.9131C64.418 16.7671 64.1067 16.4983 64.1961 16.292C64.2527 16.1645 65.7434 14.5529 66.0476 14.2793ZM115.479 12.5987C116.892 11.996 118.02 11.787 119.496 12.3711H119.491C120.406 14.0726 119.996 15.652 118.968 17.1866C117.758 18.99 114.007 21.3868 111.769 21.1133V20.42L112.451 20.4014C112.232 19.2007 113.682 18.9992 114.581 18.4336C116.736 17.0707 118.479 15.8952 118.609 13.1299C118.6 12.6107 116.04 13.3896 115.713 13.5264C115.236 13.7237 113.188 15.0018 112.881 15.3106C112.341 15.8553 111.708 18.7482 111.179 19.0264C110.654 19.1235 110.847 18.7969 110.826 18.4493C110.77 17.5151 111.42 15.5087 112.111 14.8477C112.734 14.2496 114.649 12.951 115.479 12.5987ZM34.5838 11.876C36.3548 11.1922 40.3332 8.51985 41.9324 10.7676H41.9353C42.2325 11.1848 42.298 13.2594 42.199 13.8252C42.1778 13.9481 41.8713 13.9208 41.8289 14.0459C41.775 14.2037 41.9448 14.5698 41.7635 14.9034C41.2635 15.819 39.886 16.8855 39.4402 17.5508C39.2469 17.8383 39.2816 18.3506 39.1189 18.5059C38.9629 18.6538 36.8408 20.1326 36.572 20.2832C34.683 21.3356 33.3243 19.2957 32.1121 18.1065L33.5252 18.7979C33.4544 13.9879 36.884 12.1167 41.1834 11.3819C41.5767 11.3149 41.586 11.5256 41.5388 10.9278C38.8479 10.163 34.1947 12.759 32.8103 14.9727C32.0722 16.1548 32.5229 17.5251 30.9148 18.6563C29.1154 19.9219 28.9283 17.5877 29.407 16.2618C29.6145 15.6869 31.5866 12.6845 32.1101 12.4434C32.6336 12.2025 33.0089 12.4159 33.365 12.3116C33.4358 12.2898 34.3619 11.9618 34.5838 11.876ZM40.1219 12.5508C37.9521 12.9982 34.9095 14.9292 34.7019 17.2959C34.5417 19.1245 34.9827 19.5325 36.3504 18.2207C36.9635 17.6321 40.6958 13.1176 40.1219 12.5508ZM63.6912 11.626C63.3728 11.3316 61.4289 13.6149 60.9265 13.8838C60.1104 14.3216 58.6012 14.1942 58.4998 14.2637C58.3564 14.3674 56.9801 16.9439 56.8426 17.2998C56.6044 17.9188 57.0761 18.545 57.6775 18.5635C58.9634 18.6017 63.1909 13.0161 63.6931 11.6231L63.6912 11.626ZM68.8748 13.7071C67.5284 13.6378 66.4978 14.9032 65.8045 15.8975L64.8709 17.6407C65.3661 18.0834 69.2663 14.0455 68.8748 13.7071ZM86.5515 2.13481C88.5301 1.30032 91.1474 -0.0407912 93.324 0.920941C93.7674 1.11566 94.6733 1.91305 94.5388 2.43461C94.2202 3.6856 92.7466 2.61293 92.0886 2.57817C90.9897 2.52022 89.1976 3.38008 88.2 3.90629C88.0608 3.98047 88.0253 4.32613 87.9168 4.38871V4.38578C87.6504 4.53638 87.3132 4.43023 87.0232 4.44633C87.9181 5.41176 87.0602 5.60034 87.0232 5.75785C86.7473 7.02815 88.0791 8.46841 86.657 9.77348C86.4083 10.0003 84.7162 9.93981 84.1668 10.0997C83.6998 10.2341 83.7068 10.9022 83.0135 10.6983C83.3836 11.5813 83.4334 12.3853 84.572 12.543C84.9093 12.5894 85.2775 12.3811 85.4968 12.4112C86.518 12.5479 85.8035 14.2909 84.115 13.9317C83.9452 13.8969 83.9354 13.5794 83.8953 13.5655C83.459 13.4103 82.9143 13.5746 82.5418 12.8955L83.0115 12.6661C81.3041 11.7505 81.1004 11.1756 81.1287 9.30766L81.5965 9.54399C81.3277 9.1871 82.5623 7.98379 82.6619 7.96C82.7916 7.92755 83.2447 8.14846 83.365 8.11137C83.4852 8.07421 83.4711 7.77222 83.6668 7.71196C84.2327 7.54276 84.8299 7.39744 85.3699 7.6895C85.0468 7.0613 85.3864 6.38861 85.3699 5.97368C85.3667 5.89011 84.6146 5.65562 84.7771 4.55766C84.9894 3.1251 86.1104 4.07755 86.7849 3.40532L86.0769 3.2891L87.0203 3.05766L86.5515 2.13481ZM64.1697 8.02543C61.3987 7.84705 58.6588 10.8071 58.5076 13.4727C61.0003 13.4261 62.9059 10.6353 64.1629 8.72758C64.3633 8.42191 64.6011 8.38923 64.1697 8.02543ZM58.1443 9.08696C57.4625 8.08338 52.8567 8.50355 52.8426 10.1192C52.8357 11.0366 53.8567 10.4314 54.3826 10.4454C55.3117 10.471 56.9036 11.3798 56.8592 12.3184C57.5167 12.3899 57.6277 11.6305 57.9412 11.1739C58.0449 11.021 58.4028 10.9787 58.4597 10.8838V10.8819C58.613 10.6315 58.3165 9.34194 58.1443 9.08696ZM105.175 3.74907C104.552 1.77184 108.801 0.999575 109.136 2.76567C109.398 4.14491 108.556 4.28693 108.085 4.9893C107.792 5.42528 106.863 6.75347 106.825 7.12895C106.554 9.78718 109.365 8.90654 110.705 7.91215C111.785 7.11023 113.763 4.04646 114.207 3.83696C116.655 2.6872 115.745 4.88733 115.028 6.13676C114.731 6.65608 113.37 8.48618 112.948 8.72563C112.604 8.92035 112.15 8.76072 111.952 8.86039C111.738 8.9671 111.738 9.22149 111.585 9.28422C109.533 10.1141 106.511 10.907 105.797 8.16508C105.141 5.64767 107.111 4.94724 107.766 2.82621L105.175 3.74907ZM29.99 2.59477C28.0892 2.38383 26.4283 3.42878 25.0369 4.55766C23.7327 5.61701 22.6526 7.49064 21.0418 7.92875C21.188 9.00659 21.2874 10.1652 22.6883 9.9102C24.6929 9.54619 26.6906 7.76811 27.99 6.30082C28.175 6.09101 29.4541 4.59461 29.282 4.44633L25.0418 5.02641C26.2847 3.99719 28.2212 4.02266 29.7683 3.64946L29.99 2.59477Z" fill="#0053D4"/>
</svg>
